<svg width="20" height="18" viewBox="0 0 20 18" fill="none" xmlns="http://www.w3.org/2000/svg">
<path d="M1.9746 17.575C1.525 17.575 1.1462 17.4166 0.8382 17.0998C0.5294 16.783 0.375 16.4078 0.375 15.9742V1.67502C0.375 1.24142 0.5294 0.866219 0.8382 0.549419C1.1462 0.232619 1.525 0.0742188 1.9746 0.0742188H8.325C8.7586 0.0742188 9.1338 0.232619 9.4506 0.549419C9.7674 0.866219 9.9258 1.24142 9.9258 1.67502V4.04982H18.0258C18.4754 4.04982 18.8542 4.20822 19.1622 4.52502C19.471 4.84182 19.6254 5.21662 19.6254 5.64942V15.9742C19.6254 16.4078 19.471 16.783 19.1622 17.0998C18.8542 17.4166 18.4754 17.575 18.0258 17.575H1.9746ZM1.9746 15.9742H8.325V13.5994H1.9746V15.9742ZM1.9746 11.9998H8.325V9.62502H1.9746V11.9998ZM1.9746 8.02542H8.325V5.64942H1.9746V8.02542ZM1.9746 4.04982H8.325V1.67502H1.9746V4.04982ZM9.9258 15.9742H18.0258V5.64942H9.9258V15.9742ZM12.1002 9.62502V8.02542H15.7746V9.62502H12.1002ZM12.1002 13.5994V11.9998H15.7746V13.5994H12.1002Z" fill="#444444"/>
</svg>
