<svg width="14" height="20" viewBox="0 0 14 20" fill="none" xmlns="http://www.w3.org/2000/svg">
<path d="M7 14.7748C8.6832 13.4252 9.9624 12.1128 10.8376 10.8376C11.7128 9.5624 12.1504 8.35 12.1504 7.2004C12.1504 6.2332 11.9752 5.408 11.6248 4.7248C11.2752 4.0416 10.842 3.4876 10.3252 3.0628C9.8084 2.638 9.25 2.3296 8.65 2.1376C8.05 1.9456 7.5 1.8496 7 1.8496C6.5168 1.8496 5.9752 1.9456 5.3752 2.1376C4.7752 2.3296 4.2128 2.638 3.688 3.0628C3.1624 3.4876 2.7248 4.0416 2.3752 4.7248C2.0248 5.408 1.8496 6.2332 1.8496 7.2004C1.8496 8.35 2.2872 9.5624 3.1624 10.8376C4.0376 12.1128 5.3168 13.4252 7 14.7748ZM7 16.45C6.8664 16.45 6.7372 16.4332 6.6124 16.3996C6.4876 16.3668 6.3752 16.3088 6.2752 16.2256C4.2416 14.6256 2.7292 13.0796 1.738 11.5876C0.746 10.0956 0.25 8.6332 0.25 7.2004C0.25 6.0668 0.45 5.0668 0.85 4.2004C1.25 3.3332 1.7752 2.608 2.4256 2.0248C3.0752 1.4416 3.804 1 4.612 0.7C5.4208 0.4 6.2168 0.25 7 0.25C7.8 0.25 8.6 0.4 9.4 0.7C10.2 1 10.9248 1.4416 11.5744 2.0248C12.2248 2.608 12.75 3.3288 13.15 4.1872C13.55 5.0456 13.75 6.05 13.75 7.2004C13.75 8.6332 13.254 10.0956 12.262 11.5876C11.2708 13.0796 9.7584 14.6256 7.7248 16.2256C7.6248 16.3088 7.5124 16.3668 7.3876 16.3996C7.2628 16.4332 7.1336 16.45 7 16.45ZM7 8.8504C7.5 8.8504 7.9248 8.6752 8.2744 8.3248C8.6248 7.9752 8.8 7.5504 8.8 7.0504C8.8 6.5504 8.6248 6.1252 8.2744 5.7748C7.9248 5.4252 7.5 5.2504 7 5.2504C6.5 5.2504 6.0752 5.4252 5.7256 5.7748C5.3752 6.1252 5.2 6.5504 5.2 7.0504C5.2 7.5504 5.3752 7.9752 5.7256 8.3248C6.0752 8.6752 6.5 8.8504 7 8.8504ZM1.0504 19.75C0.8336 19.75 0.646 19.6708 0.4876 19.5124C0.3292 19.354 0.25 19.1664 0.25 18.9496C0.25 18.7336 0.3292 18.5464 0.4876 18.388C0.646 18.2296 0.8336 18.1504 1.0504 18.1504H12.9496C13.1664 18.1504 13.354 18.2296 13.5124 18.388C13.6708 18.5464 13.75 18.7336 13.75 18.9496C13.75 19.1664 13.6708 19.354 13.5124 19.5124C13.354 19.6708 13.1664 19.75 12.9496 19.75H1.0504Z" fill="#444444"/>
</svg>
