<svg width="16" height="22" viewBox="0 0 16 22" fill="none" xmlns="http://www.w3.org/2000/svg">
<path d="M3.1004 21.4494C2.8668 21.3662 2.7208 21.2038 2.6624 20.9622C2.604 20.7206 2.6664 20.5166 2.8496 20.3502L3.7004 19.4994C2.8004 19.4994 2.042 19.191 1.4252 18.5742C0.8084 17.9582 0.5 17.2002 0.5 16.3002V7.0746C0.5 5.6418 1.1376 4.7042 2.4128 4.2618C3.688 3.8202 5.2752 3.5662 7.1744 3.4998L7.9004 2.025H3.6248C3.4584 2.025 3.3208 1.9666 3.212 1.8498C3.104 1.733 3.05 1.583 3.05 1.3998C3.05 1.2334 3.1084 1.0918 3.2252 0.975005C3.342 0.858205 3.4836 0.799805 3.65 0.799805H12.35C12.5164 0.799805 12.654 0.858205 12.7628 0.975005C12.8708 1.0918 12.9248 1.2334 12.9248 1.3998C12.9248 1.5662 12.8708 1.7122 12.7628 1.8378C12.654 1.9626 12.5164 2.025 12.35 2.025H9.5504L8.8256 3.4998C10.692 3.5662 12.2708 3.8122 13.562 4.2378C14.854 4.6626 15.5 5.6082 15.5 7.0746V16.3002C15.5 17.2002 15.1916 17.9582 14.5748 18.5742C13.958 19.191 13.1996 19.4994 12.2996 19.4994L13.1504 20.3502C13.3168 20.5166 13.3752 20.7206 13.3256 20.9622C13.2752 21.2038 13.1332 21.3662 12.8996 21.4494C12.7668 21.4998 12.642 21.5166 12.5252 21.4998C12.4084 21.483 12.3 21.4162 12.2 21.2994L10.3748 19.4994H5.6252L3.8 21.2994C3.7 21.3994 3.5916 21.4622 3.4748 21.4878C3.358 21.5126 3.2332 21.4998 3.1004 21.4494ZM7.9748 16.7502C8.358 16.7502 8.6748 16.625 8.9252 16.3746C9.1748 16.125 9.2996 15.8086 9.2996 15.4254C9.2996 15.0414 9.1748 14.7246 8.9252 14.475C8.6748 14.2246 8.358 14.0994 7.9748 14.0994C7.5916 14.0994 7.2752 14.2246 7.0256 14.475C6.7752 14.7246 6.65 15.0414 6.65 15.4254C6.65 15.8086 6.7752 16.125 7.0256 16.3746C7.2752 16.625 7.5916 16.7502 7.9748 16.7502ZM2.0996 11.3502H13.9004V7.9002H2.0996V11.3502ZM3.7004 17.925H12.2744C12.7416 17.925 13.1292 17.7666 13.4372 17.4498C13.746 17.133 13.9004 16.7498 13.9004 16.3002V12.9498H2.0996V16.3002C2.0996 16.7498 2.2496 17.133 2.5496 17.4498C2.8496 17.7666 3.2332 17.925 3.7004 17.925ZM7.9748 5.0994C6.0084 5.0994 4.6252 5.2162 3.8252 5.4498C3.0252 5.6834 2.5336 5.9666 2.3504 6.2994H13.6256C13.4416 5.9666 12.954 5.6834 12.1628 5.4498C11.3708 5.2162 9.9748 5.0994 7.9748 5.0994Z" fill="#444444"/>
</svg>
