<svg 
    width="36" 
    height="36" 
    viewBox="0 0 36 36" 
    fill="none" 
    xmlns="http://www.w3.org/2000/svg"
>
<path fill-rule="evenodd" clip-rule="evenodd" d="M11.816 3.09C13.416 3.019 13.929 3 18 3c4.072 0 4.584.018 6.185.09 1.601.073 2.69.333 3.643.707a7.43 7.43 0 0 1 2.654 1.758 7.427 7.427 0 0 1 1.733 2.694c.369.972.625 2.078.696 3.696.071 1.625.09 2.144.09 6.276 0 4.131-.018 4.65-.09 6.275-.071 1.625-.327 2.73-.696 3.697a7.56 7.56 0 0 1-1.733 2.694 7.297 7.297 0 0 1-2.654 1.757c-.959.375-2.048.634-3.643.707-1.601.072-2.113.09-6.185.09-4.071 0-4.583-.018-6.184-.09-1.602-.073-2.69-.332-3.643-.707a7.428 7.428 0 0 1-2.655-1.757 7.426 7.426 0 0 1-1.732-2.694c-.37-.973-.625-2.078-.697-3.697C3.018 22.872 3 22.352 3 18.221c0-4.132.018-4.651.09-6.276.07-1.625.327-2.73.696-3.696a7.56 7.56 0 0 1 1.732-2.694 7.297 7.297 0 0 1 2.655-1.758c.952-.374 2.047-.634 3.643-.706zM24.06 5.834c-1.578-.073-2.054-.09-6.06-.09s-4.482.011-6.06.09c-1.464.066-2.255.314-2.785.525A4.663 4.663 0 0 0 7.429 7.5c-.53.531-.852 1.039-1.125 1.751-.209.538-.453 1.341-.518 2.827-.072 1.6-.09 2.084-.09 6.149 0 4.065.018 4.542.09 6.149.065 1.485.31 2.289.518 2.826.273.713.6 1.22 1.125 1.752a4.588 4.588 0 0 0 1.726 1.141c.53.212 1.321.46 2.786.526 1.577.072 2.053.09 6.06.09 4.005 0 4.476-.018 6.059-.09 1.464-.066 2.256-.314 2.786-.526a4.66 4.66 0 0 0 1.726-1.141c.53-.532.85-1.039 1.125-1.752.208-.537.452-1.34.518-2.826.071-1.601.089-2.084.089-6.15 0-4.064-.018-4.541-.09-6.148-.065-1.486-.309-2.289-.517-2.827A4.745 4.745 0 0 0 28.572 7.5a4.589 4.589 0 0 0-1.726-1.142c-.53-.211-1.322-.459-2.786-.525zM10.059 18.22a7.722 7.722 0 1 1 15.439.002 7.722 7.722 0 0 1-15.44-.002zm2.709 0a5.011 5.011 0 1 0 10.023 0 5.011 5.011 0 1 0-10.023 0zm13.173-6.397a1.765 1.765 0 1 0 0-3.53 1.765 1.765 0 0 0 0 3.53z" fill="#000"/>
<mask id="2egfwrp2na" style="mask-type:alpha" maskUnits="userSpaceOnUse" x="3" y="3" width="30" height="31">
    <path fill-rule="evenodd" clip-rule="evenodd" d="M11.816 3.09C13.416 3.019 13.929 3 18 3c4.072 0 4.584.018 6.185.09 1.601.073 2.69.333 3.643.707a7.43 7.43 0 0 1 2.654 1.758 7.427 7.427 0 0 1 1.733 2.694c.369.972.625 2.078.696 3.696.071 1.625.09 2.144.09 6.276 0 4.131-.018 4.65-.09 6.275-.071 1.625-.327 2.73-.696 3.697a7.56 7.56 0 0 1-1.733 2.694 7.297 7.297 0 0 1-2.654 1.757c-.959.375-2.048.634-3.643.707-1.601.072-2.113.09-6.185.09-4.071 0-4.583-.018-6.184-.09-1.602-.073-2.69-.332-3.643-.707a7.428 7.428 0 0 1-2.655-1.757 7.426 7.426 0 0 1-1.732-2.694c-.37-.973-.625-2.078-.697-3.697C3.018 22.872 3 22.352 3 18.221c0-4.132.018-4.651.09-6.276.07-1.625.327-2.73.696-3.696a7.56 7.56 0 0 1 1.732-2.694 7.297 7.297 0 0 1 2.655-1.758c.952-.374 2.047-.634 3.643-.706zM24.06 5.834c-1.578-.073-2.054-.09-6.06-.09s-4.482.011-6.06.09c-1.464.066-2.255.314-2.785.525A4.663 4.663 0 0 0 7.429 7.5c-.53.531-.852 1.039-1.125 1.751-.209.538-.453 1.341-.518 2.827-.072 1.6-.09 2.084-.09 6.149 0 4.065.018 4.542.09 6.149.065 1.485.31 2.289.518 2.826.273.713.6 1.22 1.125 1.752a4.588 4.588 0 0 0 1.726 1.141c.53.212 1.321.46 2.786.526 1.577.072 2.053.09 6.06.09 4.005 0 4.476-.018 6.059-.09 1.464-.066 2.256-.314 2.786-.526a4.66 4.66 0 0 0 1.726-1.141c.53-.532.85-1.039 1.125-1.752.208-.537.452-1.34.518-2.826.071-1.601.089-2.084.089-6.15 0-4.064-.018-4.541-.09-6.148-.065-1.486-.309-2.289-.517-2.827A4.745 4.745 0 0 0 28.572 7.5a4.589 4.589 0 0 0-1.726-1.142c-.53-.211-1.322-.459-2.786-.525zM10.059 18.22a7.722 7.722 0 1 1 15.439.002 7.722 7.722 0 0 1-15.44-.002zm2.709 0a5.011 5.011 0 1 0 10.023 0 5.011 5.011 0 1 0-10.023 0zm13.173-6.397a1.765 1.765 0 1 0 0-3.53 1.765 1.765 0 0 0 0 3.53z" fill="#fff"/>
</mask>
<g mask="url(#2egfwrp2na)">
    <path fill="#fff" d="M0 0h36v36H0z"/>
</g>
</svg>