<svg width="65" height="48" viewBox="0 0 65 48" fill="none" xmlns="http://www.w3.org/2000/svg">
<g clip-path="url(#clip0_463_30460)">
<circle cx="32.5" cy="32.5" r="32.5" fill="#F1F4F8"/>
</g>
<ellipse cx="32.1832" cy="36.2722" rx="7.63636" ry="2.72727" fill="#B5D4E8"/>
<path d="M32.9374 35.7273C32.9374 35.7273 27.7113 30.0906 26.4332 27.1188C25.6517 25.2937 24.8865 23.3476 25.1389 21.3771C25.3831 19.4148 26.6286 17.6705 28.2241 16.4915C29.2905 15.7081 30.536 15.1348 31.8548 15.0217C34.8342 14.7552 37.667 16.976 38.709 19.762C39.751 22.5481 39.2463 25.7137 38.0089 28.4109C36.7716 31.1081 34.8423 33.4419 32.9374 35.7273Z" fill="#FFE163"/>
<path d="M33.6001 34.2289C32.3636 32.945 31.1436 31.6243 29.9896 30.2887C29.157 29.3295 28.3409 28.326 27.6732 27.2561C27.3105 26.6731 27.0302 26.0607 26.7747 25.4409C26.412 24.5702 26.0823 23.6553 26.0328 22.7182C25.9504 21.0948 26.75 19.6486 28.0442 18.5418C29.3301 17.4276 31.1271 16.6012 32.9571 16.8004C34.5069 16.9701 35.9082 17.8335 36.848 18.9255C37.9773 20.2315 38.406 21.8696 38.3565 23.4929C38.2164 27.684 35.0757 31.1004 32.2317 34.1699C31.8773 34.5536 31.8196 35.0922 32.2317 35.4612C32.5944 35.7858 33.3281 35.8449 33.6743 35.4612C36.6089 32.2441 39.6425 28.8499 40.2607 24.5997C40.541 22.6518 40.2689 20.6005 39.1973 18.8591C38.2411 17.3022 36.6831 16.0921 34.8449 15.428C30.715 13.9375 26.0575 16.5496 24.4913 20.0249C23.601 22.0098 24.0379 24.1422 24.8705 26.0828C25.464 27.4774 26.1977 28.7097 27.1704 29.9272C28.7119 31.8678 30.4347 33.7124 32.2977 35.4095C33.1467 36.1843 34.3832 35.0332 33.6166 34.2289H33.6001Z" fill="#6D757C"/>
<circle cx="32.1804" cy="22.0915" r="2.72727" fill="white"/>
<defs>
<clipPath id="clip0_463_30460">
<rect width="65" height="48" fill="white"/>
</clipPath>
</defs>
</svg>
