<svg 
    width="32" 
    height="28" 
    viewBox="0 0 32 28" 
    fill="none" 
    xmlns="http://www.w3.org/2000/svg"
>
<path fill-rule="evenodd" clip-rule="evenodd" d="M28.3847 8.86601H26.5175V9.32095H26.4946C26.0395 8.9018 25.5759 8.72103 24.8388 8.72103C24.0157 8.72103 23.2971 8.99839 22.7933 9.59431C22.2886 10.19 22.0365 10.9941 22.0365 12.007C22.0365 12.9109 22.2628 13.6316 22.7159 14.1687C23.1687 14.7066 23.8373 14.9956 24.6087 14.9956C25.4401 14.9956 26.0655 14.777 26.4946 14.1779H26.5175V14.5647C26.5193 15.5681 25.4683 16.0779 24.7042 16.0001V17.5083C25.6197 17.6404 26.7071 17.5891 27.47 16.8545C28.1118 16.2364 28.3847 15.3476 28.3847 13.8889V8.86601ZM21.0912 11.8818C21.0912 11.4647 21.0113 11.0708 20.8507 10.6988C20.6889 10.3266 20.4557 9.99449 20.1466 9.70233C19.8418 9.41357 19.4928 9.1928 19.0974 9.03842C18.7024 8.88464 18.2849 8.80805 17.8452 8.80805C17.4139 8.80805 17.0024 8.88464 16.6125 9.03842C16.2205 9.1928 15.8711 9.41357 15.5621 9.70233C15.2447 10.0061 15.0056 10.3424 14.8426 10.71C14.68 11.0782 14.599 11.4689 14.599 11.8818C14.599 12.2938 14.68 12.6847 14.8426 13.0527C15.0056 13.4214 15.2447 13.7568 15.5621 14.0604C15.8711 14.3483 16.2205 14.5701 16.6125 14.7235C17.0024 14.8768 17.4139 14.9546 17.8452 14.9546C18.2849 14.9546 18.7024 14.8768 19.0974 14.7235C19.4928 14.5701 19.8418 14.3483 20.1466 14.0604C20.4557 13.7684 20.6889 13.436 20.8507 13.0643C21.0113 12.6921 21.0912 12.2982 21.0912 11.8818ZM13.3336 9.56476C13.1782 6.2672 10.4931 6.10102 10.4931 6.10102V8.15775C10.4931 8.15775 11.4178 8.31333 11.4178 9.49977V14.6393H13.3336V9.56476ZM10.0428 11.8711C10.0428 11.0104 9.73403 10.2329 9.31104 9.73677C8.88608 9.23963 8.1778 8.80769 7.49755 8.83089C6.70088 8.85728 6.02635 9.00626 5.51813 9.44661H5.49425V6.27203H3.61545V14.5769H5.49425V14.1736H5.51813C5.92257 14.4855 6.46926 14.7135 7.21759 14.7135C8.04601 14.7135 8.80696 14.4751 9.30157 13.9086C9.79737 13.3433 10.0428 12.8064 10.0428 11.8711ZM32 4.20332V18.5474C32 20.4914 30.4302 22.0836 28.5113 22.0836H18.6475C18.6475 22.0836 16.5955 27.3337 15.9028 27.3337C15.2115 27.3337 13.3142 22.0836 13.3142 22.0836H3.4887C1.56965 22.0836 0 20.4914 0 18.5474V4.20332C0 2.25898 1.56965 0.666992 3.4887 0.666992H28.5113C30.4302 0.666992 32 2.25898 32 4.20332ZM25.2282 10.5364C24.8715 10.5364 24.5659 10.6681 24.3116 10.9295C24.0584 11.1913 23.931 11.5086 23.931 11.8816C23.931 12.2537 24.0584 12.5711 24.3116 12.8326C24.5659 13.0942 24.8715 13.2258 25.2282 13.2258C25.59 13.2258 25.9009 13.0942 26.159 12.8326C26.4171 12.5711 26.5467 12.2537 26.5467 11.8816C26.5467 11.5086 26.4171 11.1913 26.159 10.9295C25.9009 10.6681 25.59 10.5364 25.2282 10.5364ZM17.8428 10.5255C17.4863 10.5255 17.1803 10.6557 16.9273 10.9182C16.6734 11.1802 16.5456 11.4974 16.5456 11.8695C16.5456 12.2425 16.6734 12.5588 16.9273 12.8216C17.1803 13.0832 17.4863 13.2145 17.8428 13.2145C18.2054 13.2145 18.5157 13.0832 18.774 12.8216C19.033 12.5588 19.1616 12.2425 19.1616 11.8695C19.1616 11.4974 19.033 11.1802 18.774 10.9182C18.5157 10.6557 18.2054 10.5255 17.8428 10.5255ZM7.70047 10.9295C7.95971 11.1913 8.08794 11.5086 8.08794 11.8816C8.08794 12.2537 7.95971 12.5711 7.70047 12.8326C7.44221 13.0942 7.13207 13.2258 6.76984 13.2258C6.41294 13.2258 6.10734 13.0942 5.85362 12.8326C5.59991 12.5711 5.47266 12.2537 5.47266 11.8816C5.47266 11.5086 5.59991 11.1913 5.85362 10.9295C6.10734 10.6681 6.41294 10.5364 6.76984 10.5364C7.13207 10.5364 7.44221 10.6681 7.70047 10.9295Z" fill="white"/>
</svg>